<svg viewBox="0 0 100 100" xmlns="http://www.w3.org/2000/svg"><path d="M73.5,74.5Q50,99,30.5,74.5Q11,50,30.5,32Q50,14,73.5,32Q97,50,73.5,74.5Z" stroke="none" stroke-width="0" fill="#f7eee5"/><path d="M65.5,68Q50,86,29,68Q8,50,29,27Q50,4,65.5,27Q81,50,65.5,68Z" stroke="none" stroke-width="0" fill="#f3eae5"/><path d="M72,70Q50,90,26.5,70Q3,50,26.5,26Q50,2,72,26Q94,50,72,70Z" stroke="none" stroke-width="0" fill="#efe6e5"/><path d="M69.5,68Q50,86,33,68Q16,50,33,32.5Q50,15,69.5,32.5Q89,50,69.5,68Z" stroke="none" stroke-width="0" fill="#ebe2e5"/><path d="M72.5,65.5Q50,81,27,65.5Q4,50,27,33.5Q50,17,72.5,33.5Q95,50,72.5,65.5Z" stroke="none" stroke-width="0" fill="#e7dee5"/><path d="M66,69Q50,88,28,69Q6,50,28,26.5Q50,3,66,26.5Q82,50,66,69Z" stroke="none" stroke-width="0" fill="#e3dae5"/><path d="M71,66Q50,82,31,66Q12,50,31,33.5Q50,17,71,33.5Q92,50,71,66Z" stroke="none" stroke-width="0" fill="#dfd6e5"/><path d="M65.5,74.5Q50,99,31,74.5Q12,50,31,35Q50,20,65.5,35Q81,50,65.5,74.5Z" stroke="none" stroke-width="0" fill="#dbd2e5"/><path d="M70,71.5Q50,93,27.5,71.5Q5,50,27.5,34Q50,18,70,34Q90,50,70,71.5Z" stroke="none" stroke-width="0" fill="#d7cee5"/><path d="M74.5,68Q50,86,30.5,68Q11,50,30.5,32Q50,14,74.5,32Q99,50,74.5,68Z" stroke="none" stroke-width="0" fill="#d3cae5"/><path d="M67,70Q50,90,29,70Q8,50,29,26Q50,2,67,26Q84,50,67,70Z" stroke="none" stroke-width="0" fill="#cfc6e5"/><path d="M71,65.5Q50,81,31.5,65.5Q13,50,31.5,30Q50,10,71,30Q92,50,71,65.5Z" stroke="none" stroke-width="0" fill="#cbc2e5"/><path d="M71,69.5Q50,89,30,69.5Q10,50,30,32Q50,14,71,32Q92,50,71,69.5Z" stroke="none" stroke-width="0" fill="#c7bee5"/><path d="M67,71Q50,92,28.5,71Q7,50,28.5,31.5Q50,13,67,31.5Q84,50,67,71Z" stroke="none" stroke-width="0" fill="#c3bae5"/><path d="M65.5,70Q50,90,27.5,70Q5,50,27.5,32Q50,14,65.5,32Q81,50,65.5,70Z" stroke="none" stroke-width="0" fill="#bfb6e5"/><path d="M71.5,71.5Q50,93,31.5,71.5Q13,50,31.5,27.5Q50,5,71.5,27.5Q93,50,71.5,71.5Z" stroke="none" stroke-width="0" fill="#bbb2e5"/><path d="M65.5,69.5Q50,89,27,69.5Q4,50,27,35Q50,20,65.5,35Q81,50,65.5,69.5Z" stroke="none" stroke-width="0" fill="#b7aee5"/><path d="M73.5,69Q50,88,28,69Q6,50,28,34Q50,18,73.5,34Q97,50,73.5,69Z" stroke="none" stroke-width="0" fill="#b3aae5"/><path d="M69,70.5Q50,91,25.5,70.5Q1,50,25.5,30.5Q50,11,69,30.5Q88,50,69,70.5Z" stroke="none" stroke-width="0" fill="#afa6e5"/><path d="M71.5,71.5Q50,93,32.5,71.5Q15,50,32.5,34.5Q50,19,71.5,34.5Q93,50,71.5,71.5Z" stroke="none" stroke-width="0" fill="#aba2e5"/><path d="M71.5,75Q50,100,28,75Q6,50,28,34Q50,18,71.5,34Q93,50,71.5,75Z" stroke="none" stroke-width="0" fill="#a79ee5"/><path d="M68,66.5Q50,83,28.5,66.5Q7,50,28.5,29Q50,8,68,29Q86,50,68,66.5Z" stroke="none" stroke-width="0" fill="#a39ae5"/><path d="M69,72Q50,94,30.5,72Q11,50,30.5,30Q50,10,69,30Q88,50,69,72Z" stroke="none" stroke-width="0" fill="#9f96e5"/><path d="M73.5,66Q50,82,33,66Q16,50,33,27.5Q50,5,73.5,27.5Q97,50,73.5,66Z" stroke="none" stroke-width="0" fill="#9b92e5"/><path d="M72,70Q50,90,26.5,70Q3,50,26.5,26Q50,2,72,26Q94,50,72,70Z" stroke="none" stroke-width="0" fill="#978ee5"/><path d="M74.5,65.5Q50,81,26.5,65.5Q3,50,26.5,26Q50,2,74.5,26Q99,50,74.5,65.5Z" stroke="none" stroke-width="0" fill="#938ae5"/><path d="M69,73Q50,96,25,73Q0,50,25,30.5Q50,11,69,30.5Q88,50,69,73Z" stroke="none" stroke-width="0" fill="#8f86e5"/><path d="M68.5,70.5Q50,91,31,70.5Q12,50,31,29.5Q50,9,68.5,29.5Q87,50,68.5,70.5Z" stroke="none" stroke-width="0" fill="#8b82e5"/><path d="M73.5,71Q50,92,25.5,71Q1,50,25.5,31Q50,12,73.5,31Q97,50,73.5,71Z" stroke="none" stroke-width="0" fill="#877ee5"/><path d="M71.5,69Q50,88,27,69Q4,50,27,26Q50,2,71.5,26Q93,50,71.5,69Z" stroke="none" stroke-width="0" fill="#837ae5"/><path d="M72.5,68Q50,86,31,68Q12,50,31,34.5Q50,19,72.5,34.5Q95,50,72.5,68Z" stroke="none" stroke-width="0" fill="#7f76e5"/><path d="M74.5,66Q50,82,28.5,66Q7,50,28.5,31.5Q50,13,74.5,31.5Q99,50,74.5,66Z" stroke="none" stroke-width="0" fill="#7b72e5"/><path d="M74,69.5Q50,89,30.5,69.5Q11,50,30.5,31Q50,12,74,31Q98,50,74,69.5Z" stroke="none" stroke-width="0" fill="#776ee5"/><path d="M68.5,69.5Q50,89,29.5,69.5Q9,50,29.5,34.5Q50,19,68.5,34.5Q87,50,68.5,69.5Z" stroke="none" stroke-width="0" fill="#736ae5"/><path d="M74.5,74.5Q50,99,26.5,74.5Q3,50,26.5,34.5Q50,19,74.5,34.5Q99,50,74.5,74.5Z" stroke="none" stroke-width="0" fill="#6f66e5"/><path d="M70.5,73.5Q50,97,30.5,73.5Q11,50,30.5,34.5Q50,19,70.5,34.5Q91,50,70.5,73.5Z" stroke="none" stroke-width="0" fill="#6b62e5"/><path d="M72.5,74Q50,98,32,74Q14,50,32,32.5Q50,15,72.5,32.5Q95,50,72.5,74Z" stroke="none" stroke-width="0" fill="#675ee5"/><path d="M74.5,66Q50,82,34.5,66Q19,50,34.5,31Q50,12,74.5,31Q99,50,74.5,66Z" stroke="none" stroke-width="0" fill="#635ae5"/><path d="M72.5,73Q50,96,30,73Q10,50,30,27Q50,4,72.5,27Q95,50,72.5,73Z" stroke="none" stroke-width="0" fill="#5f56e5"/><path d="M67.5,71.5Q50,93,27,71.5Q4,50,27,31Q50,12,67.5,31Q85,50,67.5,71.5Z" stroke="none" stroke-width="0" fill="#5b52e5"/><path d="M73,69.5Q50,89,34.5,69.5Q19,50,34.5,31Q50,12,73,31Q96,50,73,69.5Z" stroke="none" stroke-width="0" fill="#574ee5"/><path d="M74.5,74Q50,98,35,74Q20,50,35,31Q50,12,74.5,31Q99,50,74.5,74Z" stroke="none" stroke-width="0" fill="#534ae5"/></svg>