<svg viewBox="0 0 100 100" xmlns="http://www.w3.org/2000/svg"><path d="M73.5,74.5Q50,99,26,74.5Q2,50,26,26Q50,2,73.5,26Q97,50,73.5,74.5Z" stroke="none" stroke-width="0" fill="#f7eee5"/><path d="M70.5,71.5Q50,93,27,71.5Q4,50,27,31.5Q50,13,70.5,31.5Q91,50,70.5,71.5Z" stroke="none" stroke-width="0" fill="#f3eae5"/><path d="M74.5,70Q50,90,32,70Q14,50,32,31Q50,12,74.5,31Q99,50,74.5,70Z" stroke="none" stroke-width="0" fill="#efe6e5"/><path d="M72.5,73.5Q50,97,29.5,73.5Q9,50,29.5,26.5Q50,3,72.5,26.5Q95,50,72.5,73.5Z" stroke="none" stroke-width="0" fill="#ebe2e5"/><path d="M72,74Q50,98,25.5,74Q1,50,25.5,31.5Q50,13,72,31.5Q94,50,72,74Z" stroke="none" stroke-width="0" fill="#e7dee5"/><path d="M70,68Q50,86,25.5,68Q1,50,25.5,30.5Q50,11,70,30.5Q90,50,70,68Z" stroke="none" stroke-width="0" fill="#e3dae5"/><path d="M71,69Q50,88,29.5,69Q9,50,29.5,26.5Q50,3,71,26.5Q92,50,71,69Z" stroke="none" stroke-width="0" fill="#dfd6e5"/><path d="M69,71.5Q50,93,32.5,71.5Q15,50,32.5,25.5Q50,1,69,25.5Q88,50,69,71.5Z" stroke="none" stroke-width="0" fill="#dbd2e5"/><path d="M69,74Q50,98,30,74Q10,50,30,27Q50,4,69,27Q88,50,69,74Z" stroke="none" stroke-width="0" fill="#d7cee5"/><path d="M71,74.5Q50,99,28.5,74.5Q7,50,28.5,27.5Q50,5,71,27.5Q92,50,71,74.5Z" stroke="none" stroke-width="0" fill="#d3cae5"/><path d="M71,72Q50,94,29,72Q8,50,29,32Q50,14,71,32Q92,50,71,72Z" stroke="none" stroke-width="0" fill="#cfc6e5"/><path d="M71,70.5Q50,91,31,70.5Q12,50,31,30.5Q50,11,71,30.5Q92,50,71,70.5Z" stroke="none" stroke-width="0" fill="#cbc2e5"/><path d="M71,73Q50,96,30,73Q10,50,30,32.5Q50,15,71,32.5Q92,50,71,73Z" stroke="none" stroke-width="0" fill="#c7bee5"/><path d="M67.5,70Q50,90,26.5,70Q3,50,26.5,29Q50,8,67.5,29Q85,50,67.5,70Z" stroke="none" stroke-width="0" fill="#c3bae5"/><path d="M67.5,70Q50,90,30,70Q10,50,30,27.5Q50,5,67.5,27.5Q85,50,67.5,70Z" stroke="none" stroke-width="0" fill="#bfb6e5"/><path d="M73.5,72Q50,94,32.5,72Q15,50,32.5,25.5Q50,1,73.5,25.5Q97,50,73.5,72Z" stroke="none" stroke-width="0" fill="#bbb2e5"/><path d="M71,73Q50,96,26.5,73Q3,50,26.5,26Q50,2,71,26Q92,50,71,73Z" stroke="none" stroke-width="0" fill="#b7aee5"/><path d="M68,69.5Q50,89,31,69.5Q12,50,31,26Q50,2,68,26Q86,50,68,69.5Z" stroke="none" stroke-width="0" fill="#b3aae5"/><path d="M68.5,73Q50,96,26.5,73Q3,50,26.5,32Q50,14,68.5,32Q87,50,68.5,73Z" stroke="none" stroke-width="0" fill="#afa6e5"/><path d="M72.5,72.5Q50,95,32,72.5Q14,50,32,30Q50,10,72.5,30Q95,50,72.5,72.5Z" stroke="none" stroke-width="0" fill="#aba2e5"/><path d="M71,72Q50,94,29.5,72Q9,50,29.5,25.5Q50,1,71,25.5Q92,50,71,72Z" stroke="none" stroke-width="0" fill="#a79ee5"/><path d="M73.5,69Q50,88,26,69Q2,50,26,32Q50,14,73.5,32Q97,50,73.5,69Z" stroke="none" stroke-width="0" fill="#a39ae5"/><path d="M71.5,69.5Q50,89,27.5,69.5Q5,50,27.5,25.5Q50,1,71.5,25.5Q93,50,71.5,69.5Z" stroke="none" stroke-width="0" fill="#9f96e5"/><path d="M70.5,68.5Q50,87,30.5,68.5Q11,50,30.5,27Q50,4,70.5,27Q91,50,70.5,68.5Z" stroke="none" stroke-width="0" fill="#9b92e5"/><path d="M68,72.5Q50,95,31.5,72.5Q13,50,31.5,27.5Q50,5,68,27.5Q86,50,68,72.5Z" stroke="none" stroke-width="0" fill="#978ee5"/><path d="M68.5,68Q50,86,29,68Q8,50,29,28.5Q50,7,68.5,28.5Q87,50,68.5,68Z" stroke="none" stroke-width="0" fill="#938ae5"/><path d="M72.5,74Q50,98,32,74Q14,50,32,31.5Q50,13,72.5,31.5Q95,50,72.5,74Z" stroke="none" stroke-width="0" fill="#8f86e5"/><path d="M72.5,71.5Q50,93,28.5,71.5Q7,50,28.5,30Q50,10,72.5,30Q95,50,72.5,71.5Z" stroke="none" stroke-width="0" fill="#8b82e5"/><path d="M68.5,70.5Q50,91,27,70.5Q4,50,27,26Q50,2,68.5,26Q87,50,68.5,70.5Z" stroke="none" stroke-width="0" fill="#877ee5"/><path d="M74,68Q50,86,28.5,68Q7,50,28.5,27Q50,4,74,27Q98,50,74,68Z" stroke="none" stroke-width="0" fill="#837ae5"/><path d="M72,75Q50,100,30,75Q10,50,30,27Q50,4,72,27Q94,50,72,75Z" stroke="none" stroke-width="0" fill="#7f76e5"/><path d="M68,74Q50,98,27.5,74Q5,50,27.5,27Q50,4,68,27Q86,50,68,74Z" stroke="none" stroke-width="0" fill="#7b72e5"/><path d="M68,73Q50,96,27.5,73Q5,50,27.5,28Q50,6,68,28Q86,50,68,73Z" stroke="none" stroke-width="0" fill="#776ee5"/><path d="M70.5,73.5Q50,97,25,73.5Q0,50,25,29.5Q50,9,70.5,29.5Q91,50,70.5,73.5Z" stroke="none" stroke-width="0" fill="#736ae5"/><path d="M69.5,68Q50,86,32,68Q14,50,32,27.5Q50,5,69.5,27.5Q89,50,69.5,68Z" stroke="none" stroke-width="0" fill="#6f66e5"/><path d="M68,75Q50,100,30.5,75Q11,50,30.5,28.5Q50,7,68,28.5Q86,50,68,75Z" stroke="none" stroke-width="0" fill="#6b62e5"/><path d="M74.5,68.5Q50,87,27.5,68.5Q5,50,27.5,30Q50,10,74.5,30Q99,50,74.5,68.5Z" stroke="none" stroke-width="0" fill="#675ee5"/><path d="M72,68.5Q50,87,28.5,68.5Q7,50,28.5,26.5Q50,3,72,26.5Q94,50,72,68.5Z" stroke="none" stroke-width="0" fill="#635ae5"/><path d="M75,75Q50,100,31.5,75Q13,50,31.5,25.5Q50,1,75,25.5Q100,50,75,75Z" stroke="none" stroke-width="0" fill="#5f56e5"/><path d="M72,74Q50,98,30,74Q10,50,30,29Q50,8,72,29Q94,50,72,74Z" stroke="none" stroke-width="0" fill="#5b52e5"/><path d="M71,74.5Q50,99,28,74.5Q6,50,28,31Q50,12,71,31Q92,50,71,74.5Z" stroke="none" stroke-width="0" fill="#574ee5"/><path d="M74.5,71Q50,92,29,71Q8,50,29,32Q50,14,74.5,32Q99,50,74.5,71Z" stroke="none" stroke-width="0" fill="#534ae5"/></svg>